<?xml version="1.0" standalone="no"?>
<!DOCTYPE svg PUBLIC "-//W3C//DTD SVG 20010904//EN"
 "http://www.w3.org/TR/2001/REC-SVG-20010904/DTD/svg10.dtd">
<svg version="1.0" xmlns="http://www.w3.org/2000/svg"
 width="291.000000pt" height="173.000000pt" viewBox="0 0 291.000000 173.000000"
 preserveAspectRatio="xMidYMid meet">

<g transform="translate(0.000000,173.000000) scale(0.100000,-0.100000)"
fill="#000000" stroke="none">
<path d="M292 1442 l-293 -287 3 -294 3 -294 292 -283 291 -284 300 0 301 0
128 135 c70 74 133 135 139 135 6 0 70 -61 142 -135 l131 -135 293 0 293 0
298 291 297 291 0 281 -1 282 -298 293 -299 292 -294 0 -295 0 -132 -135 -133
-135 -37 29 c-20 16 -83 77 -141 135 l-105 106 -295 0 -295 -1 -293 -287z
m1002 119 c71 -71 127 -133 125 -137 -2 -5 -120 -124 -262 -264 l-259 -255
-134 138 -134 138 0 255 0 254 268 0 267 0 129 -129z m986 -128 l-1 -258 -557
-563 -557 -563 -267 1 -268 0 0 257 0 258 562 562 563 563 262 0 263 0 0 -257z
m-1690 -27 l0 -243 -277 -262 -278 -262 -3 238 -3 238 273 267 c150 147 276
267 281 268 4 0 7 -110 7 -244z m153 -413 l125 -122 -129 -128 c-72 -70 -133
-129 -137 -131 -5 -1 -66 54 -138 123 l-129 125 135 130 c74 71 138 129 142
127 3 -1 62 -57 131 -124z m1692 2 l130 -125 -135 -129 c-74 -72 -138 -129
-141 -128 -3 1 -64 57 -134 124 l-129 123 135 129 c74 72 136 130 139 130 3 0
64 -56 135 -124z m435 -153 l0 -248 -265 -254 c-146 -140 -270 -257 -275 -258
-6 -2 -10 86 -10 240 l1 243 272 262 c150 144 273 262 275 263 1 0 2 -112 2
-248z m-723 -144 l133 -133 0 -262 0 -263 -265 0 -265 0 -135 132 -136 132
263 263 c144 145 265 263 268 263 3 0 64 -60 137 -132z"/>
</g>
</svg>
